<svg xmlns="http://www.w3.org/2000/svg" viewBox="0 0 72 80" id="Notification">
  <g id="Page-1" fill="none" fill-rule="evenodd" stroke="none" stroke-width="1">
    <path id="H" fill="#fe9526" d="M69.8 51.8l-6.4-7-.4-.4V27.6A27.543 27.543 0 0 0 22.2 3.4a2.06 2.06 0 1 0 2 3.6 21.862 21.862 0 0 1 11.2-3c12.917.017 23.383 10.483 23.4 23.4V44H12V27.4a22.344 22.344 0 0 1 2-9.6 1.97 1.97 0 0 0-3.6-1.6A27.524 27.524 0 0 0 8 27.4v17.8l-6 6.6a7.551 7.551 0 0 0-2 5.4V63a7.81 7.81 0 0 0 7.8 7.8h15a11.34 11.34 0 0 0 11 9.2c5.41 0 10.043-3.876 11-9.2h19a7.81 7.81 0 0 0 7.8-7.8v-5.8c.37-1.99-.31-4.03-1.8-5.4zM34 76a7.321 7.321 0 0 1-7-5.2h14a7.511 7.511 0 0 1-7 5.2zm34-13a3.8 3.8 0 0 1-3.8 3.8H7.8A3.8 3.8 0 0 1 4 63v-5.8a4.212 4.212 0 0 1 1-2.6l5.8-6.4H61l5.8 6.4a4.212 4.212 0 0 1 1 2.6V63h.2z" class="color3f4662 svgShape"></path>
  </g>
</svg>
